<svg xmlns="http://www.w3.org/2000/svg" viewBox="0 0 64 64" fill="none">
  <path d="M32 8C20 12 12 24 14 38C16 48 24 56 32 56C40 56 48 48 50 38C52 24 44 12 32 8Z" fill="#7A8B6F" opacity="0.9"/>
  <path d="M32 12C24 16 18 26 19 36C20 42 25 50 32 50C39 50 44 42 45 36C46 26 40 16 32 12Z" fill="#8BA17D"/>
  <path d="M32 16L32 48" stroke="#5A6B52" stroke-width="2" stroke-linecap="round"/>
  <path d="M32 22C32 22 26 26 24 30" stroke="#5A6B52" stroke-width="1.5" stroke-linecap="round"/>
  <path d="M32 30C32 30 26 34 25 38" stroke="#5A6B52" stroke-width="1.5" stroke-linecap="round"/>
  <path d="M32 38C32 38 27 41 26 44" stroke="#5A6B52" stroke-width="1.5" stroke-linecap="round"/>
  <path d="M32 22C32 22 38 26 40 30" stroke="#5A6B52" stroke-width="1.5" stroke-linecap="round"/>
  <path d="M32 30C32 30 38 34 39 38" stroke="#5A6B52" stroke-width="1.5" stroke-linecap="round"/>
  <path d="M32 38C32 38 37 41 38 44" stroke="#5A6B52" stroke-width="1.5" stroke-linecap="round"/>
  <ellipse cx="32" cy="50" rx="3" ry="1.5" fill="#A68B5B"/>
</svg>
